<svg xmlns="http://www.w3.org/2000/svg"
shape-rendering="geometricPrecision"
width="4000" height="4000" viewBox="0 0 1024 1024"><rect width="100%" height="100%" fill="#FEFEFE" />
  <metadata>null</metadata>

<path d="
M 45.414 579.586
C 46.267 575.563 48.661 571.294 50.196 567.457
C 50.828 565.875 51.961 564.168 52.163 562.466
C 52.425 560.253 51.532 557.788 51.237 555.596
C 50.736 551.879 50.608 548.045 50.482 544.298
C 50.156 534.537 51.902 524.304 55.025 515.074
C 59.897 500.676 67.824 487.801 78.657 477.125
C 97.989 458.072 128.129 448.232 154.976 452.413
C 157.363 456.725 159.247 461.294 161.304 465.767
C 162.271 467.872 163.63 470.076 164.314 472.276
C 150.093 468.316 135.49 467.46 121.178 471.706
C 113.271 474.052 105.636 477.565 99.003 482.496
C 90.553 488.779 83.331 496.426 77.918 505.489
C 63.023 530.427 64.943 563.175 80.996 586.994
C 94.584 607.157 117.963 619.528 142.262 619.65
C 147.425 619.675 152.658 619.131 157.687 617.949
C 159.561 617.51 161.45 617.085 163.278 616.477
C 164.108 616.201 165.064 615.633 165.934 615.776
C 168.836 618.966 172.314 621.957 175.959 624.265
C 177.438 625.201 178.934 626.143 180.449 627.015
C 180.864 627.254 182.12 627.741 181.772 628.236
C 179.896 629.728 176.737 630.466 174.5 631.304
C 169.8 633.063 165.072 634.361 160.154 635.362
C 133.216 640.844 105.487 632.603 84.221 615.765
C 78.975 611.611 74.548 606.473 70.325 601.32
C 68.615 599.233 67.106 595.806 64.971 594.215
C 62.605 601.75 58.197 608.678 55.796 616.252
C 55.57 616.855 54.556 620.762 53.898 620.152
C 52.788 616.823 52.34 613.078 51.657 609.635
C 50.711 604.864 49.654 600.1 48.61 595.348
C 47.843 591.858 47.077 588.368 46.349 584.869
C 45.994 583.162 45.374 581.335 45.414 579.586 Z"
opacity="1" fill="rgb(0,0,0)" fill-rule="evenodd" />
<path d="
M 72.94 540.086
C 73.043 539.488 72.999 539.842 73.031 539.02
C 77.416 538.191 82.651 538.783 87.117 538.829
C 87.628 541.697 86.953 544.786 87.239 547.682
C 83.827 547.747 80.41 547.759 76.996 547.734
C 75.969 547.727 73.825 548.098 73.014 547.451
C 72.844 545.012 72.723 542.532 72.94 540.086 Z"
opacity="1" fill="rgb(2,2,2)" fill-rule="evenodd" />
<path d="
M 90.329 589.531
C 92.733 587.394 95.024 583.885 97.983 582.54
C 99.685 583.797 101.063 585.55 102.616 586.99
C 102.955 587.304 104.404 588.313 104.266 588.727
C 102.322 591.386 99.363 594.232 96.917 596.456
C 95.128 595.862 92.801 592.76 91.563 591.391
C 91.113 590.893 90.332 590.172 90.329 589.531 Z"
opacity="1" fill="rgb(2,2,1)" fill-rule="evenodd" />
<path d="
M 91.402 496.979
C 93.052 494.899 95.06 492.963 97.027 491.195
C 97.92 491.118 98.486 492.309 99.065 492.943
C 100.844 494.889 103.34 496.742 104.772 498.94
C 104.027 500.691 101.405 502.199 100.137 503.66
C 99.904 503.928 99.119 505.364 98.773 505.312
C 96.057 503.01 93.996 499.813 91.131 497.707
C 91.221 497.464 91.311 497.222 91.402 496.979 Z"
opacity="1" fill="rgb(2,1,1)" fill-rule="evenodd" />
<path d="
M 93.911 452.537
C 99.087 437.819 105.7 423.344 111.947 409.047
C 114.582 403.014 117.819 396.706 119.663 390.384
C 120.87 386.246 119.352 381.177 119.612 376.886
C 120.139 368.182 126.165 360.477 134.539 357.929
C 145.33 354.645 157.204 360.227 161.189 370.818
C 162.611 374.598 162.819 378.722 162.684 382.721
C 162.61 384.907 162.009 387.424 162.627 389.547
C 163.978 394.194 166.55 398.818 168.499 403.254
C 172.221 411.727 175.709 420.307 179.477 428.764
C 184.107 439.157 188.455 449.691 192.932 460.157
C 194.552 463.945 195.682 468.281 197.647 471.878
C 198.63 473.677 200.468 474.967 201.961 476.316
C 203.898 478.066 205.711 479.953 207.41 481.936
C 215.395 491.257 222.676 502.023 225.987 514.002
C 226.788 516.898 228.504 520.414 228.429 523.437
C 222.253 521.18 215.81 518.821 209.121 518.817
C 208.489 518.241 208.409 516.996 208.149 516.195
C 207.668 514.709 207.074 513.233 206.441 511.806
C 204.25 506.869 201.468 502.141 198.211 497.833
C 194.083 492.372 189.145 487.642 183.926 483.244
C 181.832 481.479 178.443 479.915 176.848 477.716
C 175.666 476.087 175 473.458 174.228 471.583
C 172.578 467.572 170.759 463.626 169.021 459.654
C 163.079 446.073 157.513 432.3 151.286 418.846
C 150.263 416.634 149.367 414.355 148.383 412.122
C 147.801 410.803 146.905 409.567 146.713 408.109
C 146.361 405.444 146.775 402.523 146.818 399.836
C 146.894 395.031 146.805 390.224 146.908 385.421
C 146.957 383.163 148.111 380.988 147.669 378.73
C 146.851 374.549 142.252 370.795 138.078 373.422
C 133.801 376.114 135.473 380.028 135.802 383.99
C 136.122 387.857 135.913 391.806 135.913 395.683
C 135.913 398.478 135.877 401.288 135.98 404.082
C 136.037 405.626 136.37 407.282 136.022 408.809
C 135.505 411.073 133.931 413.341 133.012 415.485
C 130.778 420.694 128.72 425.981 126.498 431.198
C 125.288 434.042 124.103 436.899 122.948 439.766
C 122.502 440.874 122.067 442.652 121.116 443.418
C 119.318 444.363 117.046 444.445 115.116 445.073
C 110.019 446.733 105.043 448.385 100.161 450.621
C 98.515 451.375 96.925 452.184 95.379 453.128
C 94.844 453.454 94.171 453.998 93.611 453.547
C 93.826 452.8 93.724 453.136 93.911 452.537 Z"
opacity="1" fill="rgb(0,0,0)" fill-rule="evenodd" />
<path d="
M 109 580.581
C 109.658 576.972 111.382 573.286 112.527 569.793
C 114.984 562.294 117.417 554.781 119.822 547.265
C 121.031 543.486 122.315 539.736 123.585 535.978
C 124.186 534.201 124.603 531.601 125.69 530.1
C 128.059 528.271 131.046 526.94 133.656 525.471
C 139.002 522.464 144.374 519.507 149.699 516.461
C 154.549 513.686 159.332 510.795 164.173 508.007
C 166.833 506.476 169.318 504.645 172.232 503.624
C 172.234 505.073 171.372 506.637 170.905 507.992
C 170.071 510.409 169.278 512.842 168.458 515.263
C 165.43 524.206 162.545 533.204 159.573 542.162
C 158.556 545.229 157.29 548.182 156.155 551.201
C 155.677 552.472 155.36 554.338 154.321 555.295
C 152.094 557.345 148.541 558.742 145.896 560.218
C 140.412 563.279 134.967 566.45 129.586 569.688
C 124.543 572.723 119.462 575.718 114.354 578.642
C 113.084 579.369 110.31 581.83 108.814 581.637
C 108.93 580.875 108.865 581.227 109 580.581 Z
M 131.461 541.601
C 130.247 550.534 142.965 554.786 147.522 547.149
C 148.165 546.071 148.564 544.872 148.724 543.629
C 149.852 534.858 137.856 530.357 132.92 537.719
C 132.168 538.841 131.643 540.258 131.461 541.601 Z
M 150.59 550.499
C 151.351 551.413 152.174 552.14 153.015 552.958
C 153.23 553.167 153.555 553.916 153.941 553.841
C 154.181 553.794 153.7 553.004 153.692 552.989
C 152.776 552.022 151.685 551.275 150.674 550.417
C 150.646 550.444 150.618 550.472 150.59 550.499 Z"
opacity="1" fill="rgb(1,0,1)" fill-rule="evenodd" />
<path d="
M 137.427 474.303
C 140.361 474.154 143.269 474.277 146.2 474.223
C 146.589 475.518 146.297 477.153 146.292 478.497
C 146.281 481.723 146.083 485.047 146.288 488.261
C 143.349 487.931 140.281 488.34 137.325 488.151
C 137.346 483.542 137.271 478.909 137.427 474.303 Z"
opacity="1" fill="rgb(2,2,2)" fill-rule="evenodd" />
<path d="
M 137.427 600.607
C 137.432 600.365 137.436 600.124 137.44 599.883
C 140.344 599.736 143.25 599.839 146.156 599.796
C 147.089 604.294 146.198 609.651 146.246 614.241
C 143.355 614.332 140.449 614.22 137.563 614.311
C 136.942 613.649 137.345 611.415 137.36 610.502
C 137.412 607.226 137.159 603.87 137.427 600.607 Z"
opacity="1" fill="rgb(2,1,2)" fill-rule="evenodd" />
<path d="
M 150.59 550.499
C 150.618 550.472 150.646 550.444 150.674 550.417
C 151.685 551.275 152.776 552.022 153.692 552.989
C 153.7 553.004 154.181 553.794 153.941 553.841
C 153.555 553.916 153.23 553.167 153.015 552.958
C 152.174 552.14 151.351 551.413 150.59 550.499 Z"
opacity="0.988" fill="rgb(68,75,63)" fill-rule="evenodd" />
<path d="
M 159.484 569.097
C 160.191 565.712 160.777 562.335 162.014 559.081
C 165.794 549.132 173.014 540.294 182.426 535.168
C 202.85 524.044 229.243 528.45 243.593 547.142
C 247.023 551.61 249.392 556.581 251.103 561.913
C 252.711 566.924 253.442 572.234 253.212 577.494
C 252.931 583.914 251.313 590.415 248.501 596.187
C 247.289 598.674 245.651 600.78 244.291 603.149
C 247.174 605.976 249.705 609.531 252.765 612.115
C 254.475 612.261 255.991 611.024 257.859 611.646
C 261.25 612.778 264.062 616.817 266.525 619.253
C 272.743 625.403 278.831 631.687 285.094 637.792
C 287.45 640.09 289.733 642.463 292.095 644.755
C 293.82 646.429 295.761 648.057 297.041 650.116
C 299.683 654.365 298.482 660.086 295.404 663.724
C 291.765 668.024 284.509 669.506 279.847 666.011
C 276.933 663.827 274.486 660.733 271.915 658.157
C 266.24 652.47 260.549 646.799 254.861 641.126
C 252.411 638.683 249.997 636.2 247.517 633.789
C 245.806 632.126 243.73 630.438 242.637 628.278
C 241.602 626.234 242.887 624.41 242.424 622.416
C 240.634 619.271 236.574 615.889 233.529 613.966
C 227.702 619.477 218.089 622.306 210.279 622.812
C 202.119 623.34 194.186 622.201 186.674 618.801
C 168.011 610.353 156.46 589.367 159.484 569.097 Z
M 173.969 573.112
C 173.56 577.719 174.155 582.302 175.625 586.675
C 176.91 590.5 178.95 594.101 181.611 597.141
C 184.134 600.024 187.201 602.68 190.628 604.441
C 206.833 612.767 227.158 606.732 235.311 590.174
C 237.016 586.711 238.055 582.828 238.383 578.988
C 238.773 574.408 238.195 569.658 236.727 565.304
C 235.379 561.306 233.283 557.572 230.505 554.393
C 228.016 551.544 224.989 549.211 221.652 547.431
C 204.846 538.467 184.417 546.105 176.451 563.036
C 175.001 566.118 174.268 569.743 173.969 573.112 Z"
opacity="1" fill="rgb(0,0,0)" fill-rule="evenodd" />
<path d="
M 178.193 498.961
C 180.397 496.998 182.45 494.749 184.57 492.686
C 185.308 492.584 185.888 493.591 186.42 494.079
C 187.869 495.407 190.437 497.188 191.274 498.974
C 190.483 500.884 187.621 502.606 186.105 503.952
C 185.531 504.462 184.804 505.39 184.037 505.517
C 182.146 503.419 179.417 501.555 178.193 498.961 Z"
opacity="1" fill="rgb(1,1,1)" fill-rule="evenodd" />
<path d="
M 180.935 571.1
C 183.095 559.574 192.786 551.007 204.486 549.978
C 208.032 549.665 211.278 550.641 214.746 551.038
C 215.014 552.705 214.859 555.214 214.38 556.817
C 211.264 556.224 208.397 555.286 205.154 555.4
C 198.718 555.627 192.286 559.73 188.871 565.103
C 187.234 567.678 186.987 570.447 185.815 573.148
C 184.597 573.17 181.843 573.229 180.821 572.641
C 180.835 572.121 180.876 571.618 180.935 571.1 Z"
opacity="1" fill="rgb(2,2,2)" fill-rule="evenodd" />
<path d="
M 285.156 498.224
C 290.387 497.868 295.681 498.086 300.924 498.094
C 309.083 498.107 317.763 497.729 324.336 503.46
C 333.61 511.546 332.845 526.154 324.218 534.258
C 322.265 536.093 319.604 537.824 316.928 538.29
C 322.538 545.613 327.31 553.722 332.397 561.4
C 329.289 560.825 325.664 561.3 322.496 561.255
C 321.431 561.239 319.767 561.638 318.822 561.165
C 317.461 558.505 315.472 556.035 313.885 553.49
C 311.106 549.033 308.31 544.484 305.251 540.214
C 304.58 539.857 303.746 540.104 303.004 540.09
C 301.095 540.052 299.196 539.718 297.291 540.023
C 296.503 544.885 296.961 550.09 296.939 555.006
C 296.931 556.799 297.497 559.748 296.778 561.359
C 293.114 561.127 289.074 561.058 285.427 561.48
C 284.65 561.005 285.142 558.399 285.153 557.502
C 285.2 553.67 285.191 549.837 285.188 546.004
C 285.177 530.106 284.648 514.109 285.156 498.224 Z
M 297.236 508.682
C 297.313 513.95 297.189 519.229 297.208 524.499
C 297.211 525.493 296.646 528.885 297.353 529.497
C 303.185 528.644 309.924 530.857 315.153 527.317
C 320.362 523.789 320.395 514.26 314.919 510.925
C 309.827 507.825 302.955 508.543 297.236 508.682 Z"
opacity="1" fill="rgb(1,0,1)" fill-rule="evenodd" />
<path d="
M 341.654 498.203
C 354.978 497.334 368.429 498.629 381.766 498.038
C 382.429 500.535 382.12 503.571 381.982 506.128
C 381.94 506.906 382.245 508.548 381.883 509.169
C 374.989 509.418 367.915 508.983 361.004 508.908
C 359.195 508.888 357.386 508.846 355.577 508.847
C 354.949 508.847 354.119 508.688 353.654 509.152
C 353.573 512.765 353.649 516.385 353.637 519.999
C 353.634 520.957 353.25 523.31 353.881 523.963
C 357.486 523.541 361.366 523.916 365.003 523.906
C 369.936 523.892 375.029 523.564 379.94 524.013
C 379.775 527.659 380.448 531.296 379.916 534.947
C 375.912 534.391 371.543 534.853 367.502 534.846
C 362.946 534.839 358.167 534.394 353.648 535.002
C 352.932 540.138 353.642 545.395 353.377 550.557
C 358.21 550.167 363.149 550.409 368.006 550.391
C 372.682 550.373 377.448 550.084 382.113 550.311
C 382.368 554.007 382.223 557.772 381.887 561.443
C 372.342 560.794 362.572 561.389 353.002 561.342
C 350.501 561.33 348 561.303 345.499 561.325
C 344.327 561.335 342.801 561.63 341.686 561.319
C 342.078 540.32 340.732 519.191 341.654 498.203 Z"
opacity="1" fill="rgb(1,0,1)" fill-rule="evenodd" />
<path d="
M 389.612 543.253
C 393.49 542.815 397.41 542.908 401.29 542.524
C 402.588 546.771 403.995 550.132 408.687 551.512
C 414.208 553.137 422.655 550.191 421.668 543.221
C 420.792 537.041 413.071 535.181 408.176 533.312
C 399.936 530.164 391.557 525.556 391.343 515.574
C 391.305 513.802 391.452 512.061 391.855 510.334
C 394.508 498.99 408.419 493.876 418.718 497.743
C 425.947 500.456 430.749 506.707 431.297 514.355
C 427.585 513.87 423.483 514.376 419.76 514.578
C 418.64 511.098 416.499 508.255 412.699 507.544
C 407.352 506.544 401.909 510.716 403.536 516.444
C 405.021 521.672 413.046 523.354 417.494 524.957
C 428.061 528.764 436.671 537.966 432.8 549.873
C 430.743 556.2 425.167 560.176 418.963 561.842
C 406.064 565.306 389.913 558.242 389.612 543.253 Z"
opacity="1" fill="rgb(0,0,1)" fill-rule="evenodd" />
<path d="
M 443.191 498.19
C 447.039 497.993 450.886 498.104 454.737 498.131
C 455.263 498.92 454.926 500.556 454.931 501.505
C 454.948 504.341 454.953 507.177 454.957 510.013
C 454.969 517.281 455.06 524.556 455.098 531.81
C 455.12 535.986 454.703 540.621 456.473 544.52
C 460.694 553.821 474.965 553.661 478.97 544.218
C 481.004 539.422 480.198 533.586 480.17 528.51
C 480.116 518.394 479.859 508.245 480.086 498.135
C 483.971 497.966 487.851 498.128 491.735 498.095
C 492.115 499.995 491.895 502.078 491.9 504.01
C 491.911 507.678 491.917 511.345 491.917 515.013
C 491.916 520.454 491.866 525.898 491.931 531.339
C 492.015 538.309 492.187 545.276 488.594 551.525
C 480.788 565.099 457.741 566.952 448.355 553.952
C 443.176 546.778 443.207 538.772 443.254 530.313
C 443.313 519.696 443.978 508.776 443.191 498.19 Z"
opacity="1" fill="rgb(0,0,1)" fill-rule="evenodd" />
<path d="
M 502.517 560.605
C 504.306 549.738 506.487 538.921 508.235 528.041
C 509.821 518.169 511.083 508.014 513.442 498.295
C 516.502 497.515 519.817 498.387 522.913 498.009
C 523.569 498.586 523.942 499.97 524.365 500.775
C 525.743 503.402 526.856 506.227 528.044 508.946
C 530.454 514.462 532.834 519.996 535.397 525.445
C 537.005 528.863 539.111 532.427 540.196 536.043
C 540.614 536.078 541.142 534.274 541.319 533.875
C 542.377 531.49 543.564 529.163 544.634 526.785
C 547.747 519.866 551.107 513.017 554.362 506.162
C 555.498 503.77 556.375 499.887 558.268 498.042
C 561.196 498.112 564.762 497.284 567.591 498.07
C 570.123 511.577 572.22 525.191 574.524 538.742
C 575.792 546.196 577.76 553.805 578.439 561.323
C 575.463 561.166 572.471 561.251 569.491 561.215
C 568.656 561.205 567.069 561.58 566.388 561.136
C 565.344 551.306 563.139 541.582 561.767 531.794
C 561.4 529.174 560.874 526.577 560.519 523.957
C 560.33 522.563 560.424 520.742 559.552 519.585
C 558.142 524.02 555.82 528.195 553.921 532.437
C 551.106 538.725 548.293 545.03 545.358 551.261
C 544.589 551.593 543.544 551.411 542.71 551.426
C 540.49 551.464 538.231 551.275 536.021 551.474
C 534.578 550.627 533.84 547.232 533.142 545.731
C 530.545 540.148 527.904 534.581 525.313 528.998
C 524.251 526.711 523.209 524.405 522.253 522.074
C 522.089 521.672 521.505 519.772 521.239 519.623
C 521.032 519.508 520.974 520.015 520.842 520.211
C 518.623 530.838 517.65 541.83 515.856 552.548
C 515.378 555.405 515.207 558.384 514.488 561.186
C 513.546 561.561 512.01 561.27 510.999 561.268
C 508.145 561.263 505.269 561.173 502.42 561.318
C 502.432 560.88 502.408 561.119 502.517 560.605 Z"
opacity="1" fill="rgb(0,0,1)" fill-rule="evenodd" />
<path d="
M 588.96 498.308
C 598.323 497.387 608.103 498.116 617.511 498.112
C 620.009 498.11 622.507 498.154 625.004 498.12
C 626.177 498.104 627.894 497.833 628.957 498.319
C 628.763 500.865 628.944 503.524 628.931 506.086
C 628.927 506.834 629.246 508.579 628.891 509.169
C 622.806 509.406 616.596 509.171 610.505 509.058
C 607.524 509.003 603.762 508.305 600.899 509.255
C 600.662 514.153 600.84 519.067 600.901 523.965
C 605.056 523.644 609.333 523.896 613.503 523.889
C 617.95 523.881 622.507 523.634 626.94 523.993
C 626.715 527.609 627.107 531.277 626.915 534.91
C 618.355 534.211 609.452 534.656 600.87 534.818
C 600.717 539.832 600.127 545.487 600.866 550.455
C 607.891 549.613 615.431 550.365 622.508 550.39
C 624.218 550.396 625.934 550.306 627.643 550.344
C 628.08 550.354 629 550.216 629.263 550.571
C 629.528 554.151 629.138 557.788 629.276 561.374
C 620.069 561.783 610.721 561.334 601.501 561.32
C 598.694 561.316 595.888 561.297 593.081 561.338
C 591.855 561.355 590.234 561.655 589.076 561.246
C 588.143 551.983 588.85 542.313 588.868 533.002
C 588.891 521.471 588.36 509.823 588.96 498.308 Z"
opacity="1" fill="rgb(0,0,1)" fill-rule="evenodd" />
<path d="
M 664.467 559.088
C 666.175 553.948 666.363 548.005 667.401 542.685
C 670.288 527.896 672.461 512.956 675.211 498.143
C 678.416 497.953 681.662 498.269 684.844 498.049
C 686.595 499.879 687.276 503.512 688.359 505.803
C 691.643 512.744 694.457 519.895 697.818 526.806
C 698.891 529.011 699.881 531.306 700.824 533.569
C 701.034 534.072 701.418 535.812 701.876 535.985
C 706.091 527.272 710.214 518.486 714.35 509.727
C 716.059 506.106 717.308 501.11 719.839 498.03
C 722.954 498.102 726.333 498.196 729.421 497.934
C 730.326 499.207 730.276 501.946 730.503 503.482
C 731.064 507.277 731.762 511.052 732.364 514.84
C 734.047 525.418 735.946 535.972 737.774 546.526
C 738.413 550.216 738.996 553.915 739.715 557.588
C 739.934 558.706 739.847 560.173 740.253 561.208
C 737.45 561.112 734.614 561.204 731.807 561.193
C 730.701 561.188 729.329 561.41 728.265 561.119
C 727.927 556.534 726.799 551.924 726.073 547.38
C 725.118 541.406 724.224 535.42 723.212 529.456
C 722.789 526.96 722.497 524.454 721.986 521.975
C 721.87 521.414 722.141 519.558 721.401 519.62
C 719.558 524.528 716.994 529.192 714.796 533.953
C 712.14 539.709 709.649 545.567 706.881 551.266
C 704.108 552.01 700.465 551.352 697.587 551.43
C 693.425 544.645 690.699 536.645 687.283 529.453
C 686.183 527.136 685.145 524.792 684.141 522.434
C 683.819 521.676 683.513 520.91 683.255 520.136
C 683.123 519.741 683.171 518.755 682.814 518.968
C 682.625 519.081 682.546 520.904 682.483 521.435
C 682.173 524.041 681.731 526.65 681.289 529.238
C 679.477 539.84 678.497 550.755 676.111 561.241
C 675.403 561.605 673.828 561.244 672.997 561.246
C 670.197 561.253 666.89 561.713 664.154 561.217
C 664.276 560.506 664.307 559.792 664.467 559.088 Z"
opacity="1" fill="rgb(0,0,1)" fill-rule="evenodd" />
<path d="
M 746.951 559.529
C 753.942 544.666 759.264 528.917 765.516 513.728
C 767.634 508.58 769.331 503.163 771.831 498.189
C 775.217 498.208 778.795 498.342 782.163 498.08
C 782.916 498.918 783.141 500.346 783.59 501.386
C 784.867 504.344 785.923 507.394 787.126 510.378
C 791.535 521.318 795.516 532.558 800.325 543.323
C 802.096 547.287 803.551 551.385 805.17 555.409
C 805.806 556.988 807.323 559.477 807.271 561.159
C 803.135 561.221 798.925 560.849 794.789 561.177
C 793.367 557.922 791.846 554.416 790.82 551.028
C 790.51 550.755 789.72 550.9 789.326 550.91
C 787.721 550.95 786.111 550.931 784.506 550.918
C 779.504 550.876 774.502 550.821 769.5 550.805
C 767.767 550.8 764.766 550.224 763.225 551.011
C 761.55 554.223 760.72 557.835 759.192 561.107
C 756.649 561.8 753.103 561.184 750.451 561.221
C 749.154 561.239 747.769 561.524 746.523 561.122
C 746.665 560.59 746.791 560.055 746.951 559.529 Z
M 767.402 539.577
C 767.321 539.829 767.24 540.081 767.159 540.333
C 773.77 540.11 780.4 540.379 787.012 540.319
C 786.825 538.132 785.183 535.418 784.39 533.345
C 782.727 528.997 781.178 524.598 779.462 520.269
C 778.915 518.889 778.321 517.462 777.963 516.02
C 777.74 515.123 777.753 514.034 777.089 513.342
C 773.964 522.038 771.134 531.106 767.402 539.577 Z"
opacity="1" fill="rgb(1,0,1)" fill-rule="evenodd" />
<path d="
M 803 499.099
C 803.006 498.914 803.013 498.729 803.019 498.544
C 804.186 497.88 805.686 498.102 807.011 498.106
C 810.011 498.115 813.011 498.151 816.011 498.146
C 823.511 498.131 831.011 498.121 838.511 498.127
C 842.277 498.13 846.22 498.449 849.964 498.077
C 850.175 501.773 850.005 505.501 850.164 509.198
C 844.516 508.564 838.485 509.221 832.796 509.147
C 832.251 510.553 832.605 512.499 832.613 513.999
C 832.633 517.499 832.625 520.999 832.633 524.499
C 832.66 536.685 833.053 548.985 832.527 561.139
C 829.903 561.687 826.679 561.189 823.992 561.209
C 823.042 561.217 821.581 561.588 820.745 561.163
C 820.756 549.447 820.668 537.726 820.676 526.009
C 820.68 520.448 820.403 514.766 820.737 509.222
C 814.877 509.212 809.015 509.097 803.153 509.115
C 802.2 506.401 802.794 501.953 803 499.099 Z"
opacity="1" fill="rgb(1,0,1)" fill-rule="evenodd" />
<path d="
M 854.964 526.108
C 855.556 522.283 856.338 518.559 858.046 515.046
C 864.259 502.266 878.068 495.634 891.929 496.817
C 899.51 497.464 906.842 500.654 912.144 506.166
C 913.593 507.672 916.319 510.318 916.513 512.501
C 913.985 513.452 911.357 514.558 909.006 515.891
C 908.361 516.256 906.931 517.436 906.222 517.207
C 900.214 507.645 885.723 505.058 876.518 511.453
C 868.314 517.151 864.515 527.795 868.131 537.353
C 869.218 540.228 870.711 542.955 872.912 545.141
C 875.439 547.65 878.424 549.536 881.806 550.648
C 885.656 551.913 889.922 551.987 893.834 550.986
C 898.982 549.668 902.607 546.623 905.988 542.679
C 907.303 542.957 908.659 543.861 909.883 544.446
C 912.079 545.495 914.318 546.43 916.534 547.432
C 905.805 565.727 879.103 567.595 864.314 553.121
C 857.231 546.188 853.929 535.875 854.964 526.108 Z"
opacity="1" fill="rgb(0,0,1)" fill-rule="evenodd" />
<path d="
M 927.438 498.3
C 930.301 498.087 933.195 498.199 936.064 498.212
C 936.93 498.215 938.769 497.873 939.416 498.416
C 939.234 506.912 939.548 515.429 939.463 523.925
C 941.903 524.173 944.531 523.909 947.002 523.912
C 953.321 523.921 959.655 523.798 965.971 523.983
C 966.378 521.421 966.051 518.586 965.979 515.994
C 965.82 510.284 965.281 503.86 966.202 498.216
C 970.022 498.198 973.843 498.026 977.664 498.218
C 978.341 498.997 977.946 501.45 977.952 502.501
C 977.974 506.502 977.958 510.503 977.966 514.504
C 977.999 530.096 978.327 545.748 977.883 561.332
C 973.97 561.27 970.03 561.137 966.122 561.349
C 965.598 558.679 965.961 555.712 965.963 552.997
C 965.966 546.955 966.274 540.836 966.046 534.806
C 957.224 534.707 948.315 534.443 939.5 534.822
C 939.16 543.649 939.275 552.526 939.316 561.358
C 935.637 560.801 931.35 561.127 927.635 561.323
C 927.132 558.956 927.575 556.173 927.575 553.756
C 927.575 549.292 927.414 544.84 927.436 540.374
C 927.505 526.352 927.537 512.32 927.438 498.3 Z"
opacity="1" fill="rgb(0,0,1)" fill-rule="evenodd" />

</svg>