<svg xmlns="http://www.w3.org/2000/svg"
shape-rendering="geometricPrecision"
width="4000" height="4000" viewBox="0 0 1024 1024"><rect width="100%" height="100%" fill="#000000" />
  <metadata>null</metadata>

<path d="
M 45.458 580.122
C 46.458 575.241 49.249 570.668 50.787 565.934
C 51.176 564.737 51.999 563.738 52.172 562.458
C 52.376 560.955 51.795 559.423 51.529 557.958
C 51.105 555.619 50.938 553.218 50.796 550.847
C 50.334 543.116 50.659 535.622 51.863 527.969
C 56.993 495.341 81.755 467.156 112.799 456.602
C 123.055 453.116 133.528 451.421 144.355 451.589
C 146.931 451.629 149.631 451.577 152.163 452.086
C 153.037 452.262 154.094 452.077 154.859 452.558
C 157.451 456.591 159.239 461.469 161.102 465.879
C 161.996 467.995 163.412 470.168 163.953 472.397
C 161.221 471.683 158.646 470.701 155.844 470.174
C 145.86 468.299 135.813 468.535 125.897 470.679
C 116.752 472.657 107.914 476.457 100.225 481.787
C 92.545 487.111 85.681 493.925 80.476 501.703
C 60.464 531.611 64.705 573.034 90.439 598.153
C 99.194 606.698 110.16 612.82 121.828 616.37
C 132.122 619.502 142.769 620.184 153.392 618.527
C 157.591 617.873 161.504 616.222 165.607 615.387
C 167.916 617.215 169.823 619.703 172.168 621.574
C 175.235 624.02 178.609 625.903 181.927 627.956
C 181.091 629.188 177.921 629.934 176.539 630.485
C 171.363 632.549 165.972 634.153 160.515 635.266
C 134.17 640.643 106.752 633.283 85.724 616.765
C 80.024 612.287 74.933 606.9 70.317 601.333
C 69.107 599.874 67.989 598.32 66.903 596.767
C 66.335 595.954 65.935 594.863 64.914 594.638
C 61.382 600.685 59.324 607.801 56.53 614.213
C 55.842 615.791 55.198 617.354 54.76 619.023
C 54.633 619.507 54.565 620.681 54.032 620.891
C 53.38 620.33 53.399 618.783 53.273 617.968
C 52.866 615.321 52.171 612.688 51.686 610.051
C 50.418 603.163 48.626 596.345 47.192 589.487
C 46.564 586.482 45.569 583.189 45.458 580.122 Z"
opacity="1" fill="rgb(254,254,255)" fill-rule="evenodd" />
<path d="
M 72.975 540.606
C 73.099 540.01 73.159 539.424 73.366 538.851
C 77.886 538.703 82.47 538.743 86.988 538.926
C 86.783 541.728 87.035 544.721 87.047 547.55
C 86.064 547.993 84.098 547.701 83.01 547.703
C 79.712 547.71 76.409 547.639 73.113 547.709
C 73.172 545.347 72.788 542.997 72.975 540.606 Z"
opacity="1" fill="rgb(254,254,254)" fill-rule="evenodd" />
<path d="
M 90.26 589.515
C 92.876 587.173 95.294 584.463 98.051 582.306
C 99.756 583.415 101.231 585.524 102.684 586.972
C 103.096 587.384 104.281 588.247 104.333 588.81
C 101.91 591.4 99.375 593.963 96.879 596.47
C 96.279 596.36 95.709 595.64 95.278 595.226
C 93.872 593.875 90.508 591.487 90.26 589.515 Z"
opacity="1" fill="rgb(254,254,252)" fill-rule="evenodd" />
<path d="
M 90.84 497.07
C 92.975 495.176 95.144 493.022 97.052 490.901
C 97.576 490.875 98.705 492.453 99.117 492.908
C 101.003 494.992 103.046 496.935 104.96 498.983
C 104.607 499.743 103.494 500.457 102.874 501.029
C 101.398 502.391 100.143 504.047 98.687 505.362
C 96.733 503.37 94.844 501.301 92.827 499.371
C 92.221 498.791 90.92 497.878 90.84 497.07 Z"
opacity="1" fill="rgb(253,253,253)" fill-rule="evenodd" />
<path d="
M 93.482 453.698
C 99.28 438.824 105.52 424.113 111.777 409.42
C 114.444 403.159 117.85 396.855 119.719 390.296
C 120.863 386.278 119.603 381.477 119.778 377.319
C 120.121 369.201 125.198 361.399 132.923 358.511
C 143.632 354.507 156.56 359.278 160.854 370.133
C 162.305 373.8 162.716 377.928 162.599 381.843
C 162.519 384.482 161.842 387.429 162.714 389.978
C 166.416 400.795 171.965 411.141 176.397 421.682
C 180.901 432.396 185.632 443.006 190.136 453.722
C 192.639 459.677 194.857 465.791 197.552 471.661
C 198.746 474.264 201.384 475.858 203.399 477.792
C 206.345 480.618 209.064 483.847 211.55 487.084
C 219.952 498.029 224.735 509.869 228.471 523.026
C 228.403 523.263 226.409 522.42 226.08 522.309
C 224.378 521.736 222.629 521.302 220.91 520.782
C 218.194 519.961 215.313 519.43 212.492 519.144
C 211.447 519.038 209.544 519.221 208.679 518.727
C 205.759 505.896 196.581 494.731 187.109 485.993
C 184.95 484.001 182.615 482.189 180.228 480.484
C 179.077 479.663 177.53 478.994 176.642 477.87
C 175.441 476.348 174.944 473.841 174.247 472.043
C 172.931 468.65 171.348 465.373 169.998 461.993
C 165.833 451.567 161.071 441.363 156.7 431.019
C 154.478 425.762 152.254 420.503 149.99 415.265
C 149.019 413.017 147.296 410.454 146.964 408.023
C 146.631 405.582 146.889 402.976 146.904 400.516
C 146.937 395.172 147.128 389.831 147.153 384.486
C 147.163 382.531 148.051 380.56 147.723 378.627
C 147.057 374.708 142.925 371.647 139.044 373.068
C 136.229 374.099 134.561 377.097 134.855 380.004
C 134.995 381.385 135.721 382.586 135.854 383.963
C 136.179 387.322 135.895 390.826 135.901 394.2
C 135.907 397.395 135.902 400.597 136.014 403.79
C 136.076 405.558 136.416 407.597 136.053 409.341
C 135.704 411.015 134.254 412.85 133.571 414.469
C 131.24 419.999 128.766 425.469 126.458 431.009
C 125.222 433.979 123.914 436.923 122.726 439.913
C 122.329 440.911 122.074 442.637 121.369 443.414
C 119.419 444.298 116.855 444.397 114.773 444.99
C 110.68 446.156 106.696 447.669 102.785 449.336
C 100.662 450.241 98.456 451.168 96.481 452.368
C 96.123 452.586 93.415 454.343 93.375 454.19
C 93.41 454.026 93.446 453.862 93.482 453.698 Z"
opacity="1" fill="rgb(254,254,254)" fill-rule="evenodd" />
<path d="
M 108.934 580.068
C 112.43 571.858 114.829 563.012 117.563 554.519
C 120.096 546.652 123.178 538.874 125.234 530.873
C 125.891 529.725 127.581 529.19 128.696 528.554
C 131.638 526.877 134.645 525.303 137.555 523.571
C 144.915 519.191 152.43 515.068 159.801 510.706
C 163.76 508.362 167.916 505.134 172.194 503.488
C 172.229 504.881 171.47 506.262 171.047 507.571
C 170.115 510.45 169.245 513.353 168.243 516.207
C 165.204 524.859 162.517 533.637 159.467 542.286
C 158.366 545.41 157.097 548.451 155.945 551.55
C 155.576 552.545 155.537 554.217 154.796 554.991
C 152.467 557.425 148.422 558.966 145.518 560.615
C 139.934 563.786 134.389 567.021 128.808 570.191
C 123.781 573.046 118.877 576.112 113.86 578.98
C 112.606 579.696 110.173 581.919 108.703 581.663
C 108.71 581.08 108.797 580.627 108.934 580.068 Z
M 131.952 540.067
C 129.529 548.975 141.636 555.796 147.213 547.858
C 151.222 542.15 147.397 534.038 140.28 533.826
C 137.593 533.746 135.295 535.094 133.398 536.905
C 132.737 537.838 132.341 538.995 131.952 540.067 Z
M 148.929 548.907
C 149.972 550.491 151.784 551.467 153.127 552.775
C 153.253 552.897 154.256 554.076 154.464 553.844
C 154.63 553.658 154.212 553.233 154.18 553.189
C 152.595 551.901 150.967 549.432 148.929 548.907 Z"
opacity="1" fill="rgb(254,254,254)" fill-rule="evenodd" />
<path d="
M 137.441 474.319
C 140.377 474.092 143.274 474.282 146.214 474.265
C 147.102 478.642 146.024 483.673 146.203 488.13
C 143.579 487.678 140.19 488.247 137.504 488.292
C 137.322 483.632 137.293 478.985 137.441 474.319 Z"
opacity="1" fill="rgb(253,254,254)" fill-rule="evenodd" />
<path d="
M 137.46 601.123
C 137.578 600.495 137.519 600.862 137.612 600.019
C 140.254 599.45 143.603 599.79 146.267 600.093
C 146.081 604.785 146.659 609.546 146.296 614.258
C 143.392 614.318 140.476 614.132 137.578 614.205
C 137.098 612.815 137.336 611.078 137.343 609.622
C 137.356 606.813 137.138 603.918 137.46 601.123 Z"
opacity="1" fill="rgb(254,254,254)" fill-rule="evenodd" />
<path d="
M 148.929 548.907
C 150.967 549.432 152.595 551.901 154.18 553.189
C 154.212 553.233 154.63 553.658 154.464 553.844
C 154.256 554.076 153.253 552.897 153.127 552.775
C 151.784 551.467 149.972 550.491 148.929 548.907 Z"
opacity="0.988" fill="rgb(176,156,169)" fill-rule="evenodd" />
<path d="
M 159.48 569.603
C 160.237 566.949 160.405 564.138 161.299 561.493
C 164.144 553.078 169.098 545.614 175.875 539.865
C 180.094 536.287 185.064 533.692 190.237 531.803
C 195.302 529.953 200.67 529.057 206.053 529.11
C 215.26 529.2 224.086 531.535 231.942 536.432
C 248.57 546.798 256.277 568.035 251.897 586.818
C 250.493 592.838 247.897 598.185 244.228 603.118
C 245.583 605.698 248.632 607.656 250.628 609.741
C 251.304 610.447 252.006 611.687 253.021 611.85
C 254.793 611.994 256.345 611.392 258.122 612.045
C 260.076 612.763 261.655 614.448 263.104 615.877
C 265.406 618.147 267.673 620.457 269.939 622.764
C 275.934 628.867 281.971 634.933 288.056 640.946
C 291.448 644.297 297.159 648.162 298.209 653.1
C 300.117 662.074 291.255 670.09 282.513 667.465
C 280.573 666.882 279.022 665.263 277.619 663.878
C 275.275 661.564 272.998 659.181 270.679 656.841
C 265.918 652.034 261.076 647.307 256.294 642.521
C 253.193 639.417 250.107 636.293 246.977 633.219
C 245.514 631.781 243.197 629.992 242.416 628.042
C 241.646 626.118 242.889 624.054 242.3 622.161
C 240.025 619.291 236.87 616.5 234.052 614.174
C 231.273 615.243 228.878 617.346 226.128 618.571
C 219.074 621.713 211.919 623.193 204.189 622.919
C 177.477 621.97 155.251 596.392 159.48 569.603 Z
M 173.969 573.607
C 173.668 577.411 174.116 581.274 175.143 584.941
C 181.232 606.691 208.866 615.364 226.467 601.377
C 229.781 598.743 232.469 595.388 234.488 591.68
C 236.507 587.971 237.926 583.644 238.277 579.424
C 238.711 574.195 238.204 569.039 236.337 564.111
C 234.901 560.319 232.621 556.668 229.883 553.681
C 227.592 551.182 224.776 549.058 221.804 547.444
C 201.579 536.464 175.774 550.797 173.969 573.607 Z"
opacity="1" fill="rgb(254,254,254)" fill-rule="evenodd" />
<path d="
M 178.317 499.076
C 180.464 497.542 182.899 494.884 184.481 492.76
C 185.197 493.02 186.047 494.084 186.623 494.639
C 188.204 496.163 189.701 497.778 191.099 499.471
C 189.941 500.852 188.341 501.935 187.011 503.147
C 186.213 503.874 185.524 504.902 184.618 505.48
C 183.074 503.842 181.409 502.291 179.838 500.674
C 179.35 500.172 178.573 499.711 178.317 499.076 Z"
opacity="1" fill="rgb(254,254,254)" fill-rule="evenodd" />
<path d="
M 181.462 570.596
C 182.439 567.064 183.108 563.938 185.251 560.833
C 191.627 551.589 204.12 547.91 214.639 551.294
C 215.509 552.338 214.296 555.486 214.329 556.843
C 211.704 556.504 209.256 555.649 206.555 555.62
C 199.899 555.548 193.188 559.223 189.45 564.73
C 188.361 566.335 187.356 568.111 186.718 569.949
C 186.366 570.961 186.358 572.207 185.813 573.125
C 184.351 573.038 182.822 572.904 181.36 572.936
C 181.151 572.24 181.335 571.31 181.462 570.596 Z"
opacity="1" fill="rgb(254,254,253)" fill-rule="evenodd" />
<path d="
M 285.153 498.126
C 290.36 497.792 295.64 498.102 300.863 498.057
C 307.233 498.002 313.792 497.594 319.688 500.444
C 330.533 505.687 334.347 520.208 327.688 530.26
C 325.952 532.88 323.439 535.285 320.658 536.766
C 319.467 537.4 318.128 537.579 316.975 538.295
C 321.009 544.017 324.798 549.935 328.851 555.652
C 329.811 557.008 330.801 558.372 331.706 559.764
C 331.93 560.107 332.646 560.832 332.484 561.193
C 329.188 561.404 325.812 561.111 322.502 561.16
C 321.523 561.174 319.643 561.646 318.813 561.188
C 316.534 557.175 313.751 553.35 311.238 549.474
C 309.178 546.298 307.354 542.769 305.05 539.775
C 303.208 540.02 301.25 539.856 299.388 539.886
C 298.447 539.902 297.531 539.701 296.925 540.48
C 296.868 545.666 296.987 550.86 296.935 556.052
C 296.922 557.345 296.782 558.709 296.884 559.995
C 296.914 560.364 297.147 560.913 296.898 561.238
C 293.077 561.085 288.906 561.82 285.148 561.335
C 285.973 553.562 285.236 545.322 285.219 537.503
C 285.19 524.384 285.434 511.242 285.153 498.126 Z
M 296.949 510.102
C 296.705 516.463 297.015 522.957 297.051 529.311
C 300.292 529.463 303.552 529.381 306.797 529.386
C 308.94 529.389 311.263 529.494 313.258 528.575
C 320.045 525.448 321.511 515.372 314.985 511.022
C 310.201 507.832 302.511 508.299 296.989 508.989
C 296.981 509.84 297.003 509.469 296.949 510.102 Z"
opacity="1" fill="rgb(254,254,254)" fill-rule="evenodd" />
<path d="
M 341.794 498.142
C 351.321 498.477 360.959 498.138 370.503 498.15
C 373.169 498.153 375.835 498.184 378.501 498.173
C 379.497 498.169 381 497.896 381.889 498.349
C 381.885 501.891 382.002 505.446 381.928 508.99
C 379.137 509.522 375.847 509.061 373.007 509.056
C 366.577 509.043 360.094 508.874 353.674 509.201
C 353.477 513.994 353.339 518.96 353.661 523.748
C 355.389 524.587 359.052 523.871 361.001 523.871
C 365.153 523.87 369.303 523.894 373.455 523.912
C 375.599 523.921 377.881 523.687 379.998 524.073
C 379.883 526.718 379.831 529.534 380.023 532.173
C 380.055 532.612 380.421 534.707 380.028 534.934
C 374.867 534.762 369.668 534.933 364.501 534.942
C 360.867 534.949 357.15 534.697 353.537 535.113
C 353.711 540.143 353.677 545.219 353.682 550.252
C 360.26 550.526 366.912 550.249 373.499 550.277
C 376.14 550.288 379.333 549.785 381.9 550.452
C 381.842 554.049 382.162 557.727 381.873 561.318
C 368.555 560.961 355.014 560.803 341.698 561.321
C 342.31 552.467 341.765 543.377 341.765 534.498
C 341.765 522.399 342.142 510.233 341.794 498.142 Z"
opacity="1" fill="rgb(253,254,254)" fill-rule="evenodd" />
<path d="
M 389.941 544.025
C 390.484 543.15 392.033 543.294 393.011 543.209
C 395.704 542.977 398.653 542.716 401.267 542.041
C 401.138 548.743 408.001 552.478 413.902 551.857
C 418.399 551.384 422.387 548.166 421.77 543.345
C 420.989 537.24 413.505 535.091 408.625 533.285
C 400.011 530.097 391.248 524.847 391.594 514.482
C 391.651 512.77 391.777 511.105 392.295 509.46
C 397.541 492.814 424.714 492.17 430.157 509.034
C 430.645 510.546 431.28 512.124 431.354 513.729
C 428.532 513.931 425.706 514.089 422.882 514.306
C 421.916 514.38 420.763 514.791 419.818 514.67
C 419.217 511.191 416.284 508.003 412.717 507.525
C 407.384 506.81 401.819 510.688 403.599 516.593
C 405.155 521.753 413.12 523.258 417.457 524.954
C 421.386 526.49 425.549 528.517 428.595 531.495
C 433.198 535.995 434.676 543.211 433.013 549.309
C 429.266 563.045 410.147 566.057 399.304 559.456
C 393.709 556.049 390.714 550.385 389.941 544.025 Z"
opacity="1" fill="rgb(254,254,253)" fill-rule="evenodd" />
<path d="
M 443.208 498.174
C 447.056 498.237 451.289 497.643 455.086 498.258
C 455.632 508.94 455.062 519.802 455.107 530.509
C 455.126 535.247 454.316 541.049 456.843 545.292
C 461.873 553.737 475.409 553.354 479.072 543.793
C 480.976 538.823 480.219 532.722 480.212 527.5
C 480.197 517.725 480.31 507.938 480.226 498.166
C 483.054 498.154 485.883 498.182 488.712 498.174
C 489.547 498.171 491.36 497.904 491.921 498.511
C 491.846 508.963 491.882 519.424 491.915 529.877
C 491.938 537.066 492.402 544.573 488.831 551.118
C 479.74 567.783 453.086 565.996 445.624 548.959
C 442.827 542.571 443.239 535.64 443.247 528.841
C 443.259 518.642 443.535 508.362 443.208 498.174 Z"
opacity="1" fill="rgb(254,254,254)" fill-rule="evenodd" />
<path d="
M 502.513 560.109
C 503.645 555.667 504.098 551.021 504.918 546.512
C 506.867 535.783 508.73 525.034 510.606 514.291
C 511.522 509.044 511.923 503.216 513.792 498.206
C 516.005 498.21 518.223 498.253 520.436 498.219
C 521.147 498.208 522.384 497.985 522.92 498.444
C 527.747 507.309 531.506 517.021 535.644 526.232
C 537.109 529.491 538.328 532.983 540.098 536.09
C 542.084 533.774 543.02 529.748 544.397 527.002
C 548.015 519.787 551.287 512.414 554.781 505.14
C 555.889 502.833 556.752 500.387 558.031 498.178
C 560.793 498.143 564.818 497.549 567.442 498.306
C 568.144 499.912 568.139 502.085 568.454 503.818
C 569.271 508.312 569.858 512.844 570.687 517.334
C 573.375 531.882 575.829 546.479 578.509 561.027
C 578.201 561.467 576.067 561.12 575.509 561.122
C 572.752 561.131 569.397 560.675 566.715 561.266
C 565.69 558.481 565.674 555.181 565.141 552.267
C 563.819 545.045 562.712 537.728 561.707 530.456
C 561.362 527.955 560.831 525.485 560.485 522.985
C 560.351 522.013 560.456 520.612 559.53 520.044
C 556.833 525.084 554.741 530.466 552.287 535.631
C 549.848 540.763 547.224 545.947 545.284 551.287
C 542.318 551.924 539.008 550.919 535.983 551.487
C 534.376 550.166 533.711 546.675 532.787 544.801
C 529.92 538.989 527.333 532.989 524.686 527.078
C 523.862 525.239 522.984 523.419 522.139 521.588
C 521.867 520.999 521.954 520.032 521.344 519.811
C 521.108 519.724 521.028 520.203 520.87 520.399
C 519.971 523.236 519.932 526.466 519.48 529.404
C 518.49 535.838 517.289 542.243 516.377 548.69
C 515.938 551.798 515.358 554.88 514.823 557.97
C 514.643 559.011 514.711 560.185 514.385 561.188
C 510.427 561.095 506.385 561.085 502.434 561.326
C 502.177 560.957 502.423 560.519 502.513 560.109 Z"
opacity="1" fill="rgb(254,254,253)" fill-rule="evenodd" />
<path d="
M 588.962 498.302
C 592.428 497.832 596.013 498.152 599.503 498.153
C 605.669 498.155 611.836 498.147 618.002 498.161
C 620.502 498.166 623.001 498.188 625.5 498.164
C 626.491 498.154 627.999 497.871 628.876 498.343
C 628.837 501.867 628.933 505.403 628.857 508.929
C 626.298 509.508 623.128 509.014 620.507 509.013
C 613.986 509.01 607.232 508.556 600.743 509.222
C 600.707 514.162 600.546 519.167 600.809 524.1
C 607.1 523.383 613.845 524.054 620.196 524.033
C 621.731 524.028 625.82 523.385 626.942 524.454
C 627.179 527.692 627.331 531.609 626.916 534.829
C 618.263 534.95 609.603 534.752 600.951 534.967
C 600.338 535.985 600.771 538.088 600.777 539.275
C 600.796 542.923 600.859 546.572 600.873 550.219
C 603.369 550.671 606.444 550.211 608.999 550.218
C 615.711 550.238 622.475 549.995 629.178 550.316
C 629.563 551.342 629.304 552.908 629.299 554.006
C 629.29 556.418 629.247 558.835 629.335 561.245
C 619.774 560.786 610.081 561.233 600.508 561.24
C 596.825 561.243 592.696 561.791 589.064 561.252
C 589.19 540.284 588.586 519.278 588.962 498.302 Z"
opacity="1" fill="rgb(253,254,254)" fill-rule="evenodd" />
<path d="
M 664.462 559.59
C 665.239 556.88 665.449 553.969 665.948 551.198
C 666.968 545.531 667.891 539.85 668.889 534.18
C 670.998 522.199 673.375 510.265 675.519 498.293
C 678.258 497.782 682.07 497.991 684.839 498.311
C 689.811 507.334 693.358 517.352 697.727 526.692
C 699.117 529.664 700.09 533.432 702.031 536.068
C 706.908 527.055 710.805 517.371 715.286 508.142
C 716.846 504.929 717.981 501.061 720.058 498.159
C 723.156 498.235 726.263 498.229 729.363 498.224
C 730.917 503.156 731.312 508.823 732.149 513.933
C 733.583 522.691 735.291 531.411 736.808 540.156
C 737.648 544.997 738.478 549.84 739.335 554.678
C 739.678 556.618 740.562 559.23 740.391 561.182
C 736.464 561.434 732.485 561.066 728.548 561.255
C 727.33 550.8 725.104 540.404 723.499 529.998
C 723.121 527.548 722.689 525.1 722.426 522.635
C 722.363 522.045 722.21 520.198 721.515 520.262
C 719.864 522.361 718.955 525.324 717.837 527.741
C 715.432 532.938 713.036 538.136 710.691 543.361
C 709.829 545.282 708.902 547.174 708.04 549.096
C 707.766 549.707 707.538 550.982 707.025 551.399
C 704.779 551.357 702.54 551.325 700.293 551.377
C 699.52 551.395 698.238 551.708 697.571 551.405
C 694.521 544.249 691.252 537.154 687.908 530.136
C 686.245 526.643 684.955 522.883 682.949 519.568
C 681.398 527.55 680.577 535.676 679.206 543.697
C 678.531 547.649 677.859 551.613 677.261 555.577
C 676.984 557.417 676.371 559.358 676.342 561.219
C 673.444 561.169 670.514 561.08 667.617 561.204
C 666.811 561.239 664.865 561.655 664.224 561.181
C 664.321 560.65 664.405 560.127 664.462 559.59 Z"
opacity="1" fill="rgb(254,254,253)" fill-rule="evenodd" />
<path d="
M 746.969 560.084
C 752.86 544.844 759.392 529.849 765.381 514.645
C 767.533 509.182 770.074 503.852 772.016 498.306
C 774.968 498.027 779.265 497.639 782.156 498.3
C 787.868 512.947 794.046 527.458 800.055 541.992
C 801.799 546.21 803.435 550.479 805.116 554.722
C 805.96 556.85 806.494 559.293 807.762 561.219
C 804.165 560.4 798.773 560.696 795.142 561.273
C 793.845 557.814 791.859 554.404 791.005 550.805
C 781.833 551.582 772.404 550.622 763.194 550.935
C 762.482 551.855 762.257 553.082 761.847 554.16
C 760.963 556.488 759.863 558.817 759.244 561.23
C 755.045 561.347 750.838 561.067 746.641 561.313
C 746.847 560.474 746.737 560.884 746.969 560.084 Z
M 767.477 539.585
C 767.386 539.804 767.295 540.023 767.204 540.242
C 773.812 540.122 780.64 539.809 787.236 540.258
C 785.375 534.628 782.92 529.01 780.776 523.458
C 779.545 520.27 778.645 516.695 776.98 513.743
C 775.293 519.92 772.662 526.167 770.295 532.126
C 769.341 534.528 768.07 537.076 767.477 539.585 Z"
opacity="1" fill="rgb(254,254,254)" fill-rule="evenodd" />
<path d="
M 803.299 498.29
C 818.831 498.117 834.38 498.263 849.914 498.29
C 850.036 501.772 850.326 505.374 850.061 508.86
C 849.101 509.523 846.675 509.081 845.504 509.089
C 842.673 509.107 839.841 509.119 837.01 509.133
C 835.602 509.14 833.827 508.847 832.484 509.288
C 832.209 519.497 832.582 529.786 832.592 540.006
C 832.599 546.951 832.04 554.227 832.745 561.136
C 828.751 561.498 824.664 560.774 820.669 561.219
C 821.371 551.08 820.767 540.667 820.761 530.499
C 820.758 525.744 820.76 520.989 820.732 516.234
C 820.718 513.875 820.996 511.382 820.705 509.041
C 814.958 509.357 809.088 508.451 803.338 508.988
C 803.303 505.441 803.47 501.824 803.299 498.29 Z"
opacity="1" fill="rgb(254,254,254)" fill-rule="evenodd" />
<path d="
M 854.975 526.611
C 855.466 524.665 855.532 522.628 856.057 520.669
C 857.419 515.596 860.23 510.36 864.075 506.717
C 876.683 494.772 897.312 492.753 910.686 504.812
C 913.077 506.968 915.439 509.562 916.848 512.487
C 916.54 512.9 915.421 513.025 914.94 513.259
C 912.894 514.256 910.748 515.028 908.72 516.068
C 908.139 516.366 906.747 517.524 906.171 517.287
C 904.945 514.723 902.516 512.876 900.178 511.389
C 890.338 505.127 876.48 507.812 870.169 517.861
C 868.474 520.561 867.559 523.512 867.061 526.646
C 865.707 535.16 869.992 543.978 877.243 548.498
C 886.203 554.084 900.337 552.233 906.001 542.725
C 907.481 543.123 908.927 544.194 910.323 544.862
C 912.439 545.874 914.743 546.573 916.818 547.645
C 916.255 549.675 913.678 552.053 912.221 553.517
C 906.434 559.335 898.118 562.683 889.953 562.898
C 883.752 563.061 877.551 561.858 872.057 558.9
C 860.61 552.738 853.345 539.652 854.975 526.611 Z"
opacity="1" fill="rgb(254,254,254)" fill-rule="evenodd" />
<path d="
M 927.515 498.401
C 928.131 497.84 930.124 498.083 930.96 498.096
C 933.732 498.137 936.505 498.215 939.277 498.161
C 939.818 506.724 938.867 515.379 939.427 523.949
C 945.784 523.889 952.146 523.916 958.505 523.943
C 960.505 523.952 962.51 523.994 964.503 523.975
C 965.03 523.97 965.54 524.283 966.04 524.048
C 965.644 521.77 966.072 519.288 966.1 516.992
C 966.178 510.756 966.114 504.523 965.988 498.294
C 968.565 497.661 972.042 498.133 974.707 498.15
C 975.554 498.155 977.272 497.914 977.894 498.513
C 977.548 513.151 977.905 527.853 977.925 542.497
C 977.932 546.997 977.964 551.498 977.919 555.998
C 977.903 557.529 978.359 559.776 977.932 561.222
C 974.087 561.176 969.86 560.726 966.056 561.282
C 965.874 552.562 966.279 543.758 966.318 535.021
C 965.908 534.676 965.047 534.854 964.51 534.844
C 962.842 534.815 961.17 534.858 959.503 534.857
C 952.781 534.851 946.028 535.083 939.314 534.946
C 939.014 537.74 939.269 540.693 939.266 543.507
C 939.261 549.425 939.334 555.349 939.335 561.263
C 935.438 561.386 931.509 560.897 927.615 561.329
C 927.956 558.291 927.666 555.057 927.65 551.998
C 927.623 546.7 927.641 541.401 927.601 536.103
C 927.506 523.559 927.917 510.92 927.515 498.401 Z"
opacity="1" fill="rgb(254,254,254)" fill-rule="evenodd" />

</svg>